<?xml version="1.0" ?><svg height="500" id="svg2" version="1.1" width="500" xmlns="http://www.w3.org/2000/svg" xmlns:cc="http://creativecommons.org/ns#" xmlns:dc="http://purl.org/dc/elements/1.1/" xmlns:inkscape="http://www.inkscape.org/namespaces/inkscape" xmlns:rdf="http://www.w3.org/1999/02/22-rdf-syntax-ns#" xmlns:sodipodi="http://sodipodi.sourceforge.net/DTD/sodipodi-0.dtd" xmlns:svg="http://www.w3.org/2000/svg"><defs id="defs4"/><g id="layer1" transform="translate(0,-552.36218)"><rect height="500" id="rect2990-1" rx="250" ry="250" style="fill:#55acee;fill-opacity:1;stroke:none" width="500" x="0" y="552.36218"/><g id="layer1-9" transform="translate(-549.00515,80.294372)"/><g id="layer1-6" transform="translate(-575.71429,39.999999)"/><g id="layer1-93" transform="matrix(0.99928945,0,0,0.99928945,474.7002,-40.81928)"/><path d="m 309.85,672.31218 c -35.47079,0.89879 -63.925,29.93138 -63.925,65.625 0,5.13827 0.55122,10.16156 1.675,14.975 -54.56567,-2.74126 -102.94287,-28.87749 -135.325,-68.6 -5.65147,9.69191 -8.9,20.98158 -8.9,33.025 0,22.77467 11.60809,42.85438 29.225,54.625 -10.75722,-0.34428 -20.89606,-3.30758 -29.75,-8.225 -0.005,0.27282 0,0.57069 0,0.85 0,31.80402 22.6379,58.3088 52.675,64.35 -5.50852,1.49406 -11.31075,2.3 -17.3,2.3 -4.23534,0 -8.34203,-0.40198 -12.35,-1.175 8.36022,26.08109 32.57506,45.07385 61.3,45.6 -22.46937,17.61043 -50.73534,28.1 -81.5,28.1 -5.29416,0 -10.53675,-0.28938 -15.675,-0.9 29.06272,18.63683 63.55282,29.5 100.625,29.5 120.76552,0 186.8,-100.04058 186.8,-186.8 0,-2.8452 -0.0517,-5.70577 -0.175,-8.525 12.82294,-9.2372 23.95454,-20.80776 32.75,-33.975 -11.7641,5.22922 -24.41586,8.77146 -37.7,10.35 13.56346,-8.1199 23.97061,-20.98166 28.875,-36.325 -12.68652,7.52877 -26.73993,13.00085 -41.7,15.95 -11.97197,-12.75798 -29.04137,-20.725 -47.925,-20.725 -0.56646,0 -1.13698,-0.0143 -1.7,0 z" id="rect2989" style="fill:#ffffff;fill-opacity:1;stroke:none"/></g></svg>